# xmcd CD database file
#
# Track frame offsets:
#	150
#	15708
#	29951
#	43449
#	58145
#	72828
#	86941
#
# Disc length: 1597 seconds
#
# Revision: 0
# Processed by: cddbd v1.5.2PL0 Copyright (c) Steve Scherf et al.
# Submitted via: CDex 1.51
#
DISCID=6b063b07
DTITLE=Katie Rox - Pony Up
DYEAR=2011
DGENRE=Country
TTITLE0=Now or Never
TTITLE1=Hard to Find
TTITLE2=I Won't
TTITLE3=Overdose
TTITLE4=Leave Me Here (feat. Sébastien Lefebvre)
TTITLE5=Airplane
TTITLE6=Not a Day
EXTD=YEAR: 2011
EXTT0=
EXTT1=
EXTT2=
EXTT3=
EXTT4=
EXTT5=
EXTT6=
PLAYORDER=
